<svg width="18" height="18" viewBox="0 0 18 18" fill="none" xmlns="http://www.w3.org/2000/svg">
<path d="M16.4775 13.7475C16.4775 14.0175 16.4175 14.295 16.29 14.565C16.1625 14.835 15.9975 15.09 15.78 15.33C15.4125 15.735 15.0075 16.0275 14.55 16.215C14.1 16.4025 13.6125 16.5 13.0875 16.5C12.3225 16.5 11.505 16.32 10.6425 15.9525C9.78 15.585 8.9175 15.09 8.0625 14.4675C7.2 13.8375 6.3825 13.14 5.6025 12.3675C4.83 11.5875 4.1325 10.77 3.51 9.915C2.895 9.06 2.4 8.205 2.04 7.3575C1.68 6.5025 1.5 5.685 1.5 4.905C1.5 4.395 1.59 3.9075 1.77 3.4575C1.95 3 2.235 2.58 2.6325 2.205C3.1125 1.7325 3.6375 1.5 4.1925 1.5C4.4025 1.5 4.6125 1.545 4.8 1.635C4.995 1.725 5.1675 1.86 5.3025 2.055L7.0425 4.5075C7.1775 4.695 7.275 4.8675 7.3425 5.0325C7.41 5.19 7.4475 5.3475 7.4475 5.49C7.4475 5.67 7.395 5.85 7.29 6.0225C7.1925 6.195 7.05 6.375 6.87 6.555L6.3 7.1475C6.2175 7.23 6.18 7.3275 6.18 7.4475C6.18 7.5075 6.1875 7.56 6.2025 7.62C6.225 7.68 6.2475 7.725 6.2625 7.77C6.3975 8.0175 6.63 8.34 6.96 8.73C7.2975 9.12 7.6575 9.5175 8.0475 9.915C8.4525 10.3125 8.8425 10.68 9.24 11.0175C9.63 11.3475 9.9525 11.5725 10.2075 11.7075C10.245 11.7225 10.29 11.745 10.3425 11.7675C10.4025 11.79 10.4625 11.7975 10.53 11.7975C10.6575 11.7975 10.755 11.7525 10.8375 11.67L11.4075 11.1075C11.595 10.92 11.775 10.7775 11.9475 10.6875C12.12 10.5825 12.2925 10.53 12.48 10.53C12.6225 10.53 12.7725 10.56 12.9375 10.6275C13.1025 10.695 13.275 10.7925 13.4625 10.92L15.945 12.6825C16.14 12.8175 16.275 12.975 16.3575 13.1625C16.4325 13.35 16.4775 13.5375 16.4775 13.7475Z" stroke="#404650" stroke-width="1.5" stroke-miterlimit="10"/>
<path d="M8.06219 14.4692C8.91719 15.0917 9.77969 15.5867 10.6422 15.9542C11.5047 16.3217 12.3222 16.5017 13.0872 16.5017C13.6122 16.5017 14.0997 16.4042 14.5497 16.2167C15.0072 16.0292 15.4122 15.7367 15.7797 15.3317C15.9972 15.0917 16.1622 14.8367 16.2897 14.5667C16.4172 14.2967 16.4772 14.0192 16.4772 13.7492C16.4772 13.5392 16.4322 13.3517 16.3572 13.1642C16.2747 12.9767 16.1397 12.8192 15.9447 12.6842L13.4622 10.9217C13.2747 10.7942 13.1022 10.6967 12.9372 10.6292C12.7722 10.5617 12.6222 10.5317 12.4797 10.5317C12.2922 10.5317 12.1197 10.5842 11.9472 10.6892C11.7747 10.7792 11.5947 10.9217 11.4072 11.1092L10.8372 11.6717C10.7547 11.7542 10.6572 11.7992 10.5297 11.7992C10.4622 11.7992 10.4022 11.7917 10.3422 11.7692C10.2897 11.7467 10.2447 11.7242 10.2072 11.7092C9.95219 11.5742 9.62969 11.3492 9.23969 11.0192C8.84219 10.6817 8.45219 10.3142 8.04719 9.91672C7.65719 9.51922 7.29719 9.12172 6.95969 8.73172C6.62969 8.34172 6.39719 8.01922 6.26219 7.77172C6.24719 7.72672 6.22469 7.68172 6.20219 7.62172C6.18719 7.56172 6.17969 7.50922 6.17969 7.44922" stroke="#48874E" stroke-width="1.5" stroke-miterlimit="10"/>
</svg>
